<?xml version="1.0" encoding="utf-8"?>
<!-- Generator: Adobe Illustrator 19.2.0, SVG Export Plug-In . SVG Version: 6.00 Build 0)  -->
<svg version="1.1" id="Layer_1" xmlns="http://www.w3.org/2000/svg" xmlns:xlink="http://www.w3.org/1999/xlink" x="0px" y="0px"
	 viewBox="0 0 120 63.5" style="enable-background:new 0 0 120 63.5;" xml:space="preserve">
<path d="M9.3,35.9V10.8h9.5c1.7,0,2.9,0.1,3.8,0.2c1.2,0.2,2.3,0.6,3.1,1.2s1.5,1.4,2,2.4c0.5,1,0.8,2.2,0.8,3.4
	c0,2.1-0.7,3.9-2,5.4c-1.4,1.5-3.8,2.2-7.4,2.2h-6.4v10.2H9.3z M12.7,22.7h6.5c2.1,0,3.7-0.4,4.6-1.2c0.9-0.8,1.4-1.9,1.4-3.4
	c0-1.1-0.3-2-0.8-2.7c-0.5-0.7-1.2-1.2-2.1-1.5c-0.6-0.1-1.6-0.2-3.1-0.2h-6.4V22.7z"/>
<path d="M25.1,35.9l9.7-25.1h3.6l10.3,25.1h-3.8l-1.5-3.3l-6.7,3.3l-6.8-3.4l-1.2,3.4H25.1z M31,29.9l5.7,2.9l5.7-2.9
	c0,0-5.5-15.2-5.9-16.5C36.2,15,31,29.9,31,29.9z"/>
<path d="M65.9,35.9l9.7-25.1h3.6l10.3,25.1h-3.8l-1.5-3.3l-6.7,3.3l-6.8-3.4l-1.2,3.4H65.9z M71.8,29.9l5.7,2.9l5.7-2.9
	c0,0-5.5-15.2-5.9-16.5C77,15,71.8,29.9,71.8,29.9z"/>
<path d="M49.5,35.9V10.8h3.3v22.2h12.4v3H49.5z"/>
<path d="M90.2,35.9V10.8h3.4l13.2,19.7V10.8h3.2v25.1h-3.4L93.4,16.2v19.8H90.2z"/>
<path d="M14.1,52V39.9H9.3v-1.6h11.6v1.6h-4.8V52H14.1z"/>
<path d="M44.4,52v-5.8l-5.6-7.9h2.3l2.9,4.1c0.5,0.8,1,1.5,1.5,2.3c0.4-0.7,1-1.5,1.6-2.4l2.8-4h2.2l-5.8,7.9V52H44.4z"/>
<path d="M70.1,52V38.3h5.5c1,0,1.7,0,2.2,0.1c0.7,0.1,1.3,0.3,1.8,0.6s0.9,0.8,1.2,1.3c0.3,0.6,0.4,1.2,0.4,1.9c0,1.2-0.4,2.2-1.2,3
	c-0.8,0.8-2.2,1.2-4.3,1.2H72V52H70.1z M72,44.8h3.8c1.2,0,2.1-0.2,2.7-0.7c0.5-0.4,0.8-1.1,0.8-1.8c0-0.6-0.2-1.1-0.5-1.5
	c-0.3-0.4-0.7-0.7-1.2-0.8c-0.3-0.1-0.9-0.1-1.8-0.1H72V44.8z"/>
<path d="M99.2,51.7V37.9h10.5v1.6h-8.6v4.2h8.1v1.6h-8.1V50h9v1.6H99.2z"/>
</svg>
