<?xml version="1.0" encoding="utf-8"?>
<!-- Generator: Adobe Illustrator 19.2.0, SVG Export Plug-In . SVG Version: 6.00 Build 0)  -->
<svg version="1.1" xmlns="http://www.w3.org/2000/svg" xmlns:xlink="http://www.w3.org/1999/xlink" x="0px" y="0px"
	 viewBox="0 0 370 198.3" style="enable-background:new 0 0 370 198.3;" xml:space="preserve">
<style type="text/css">
	.st0{fill:#FFFFFF;stroke:#000000;stroke-miterlimit:10;}
</style>
<g id="Base_Layout_Left">
	
		<rect id="E-" x="135.3" y="145.2" transform="matrix(0.8905 0.455 -0.455 0.8905 88.7186 -50.456)" class="st0" width="27.8" height="27.8"/>
	<path d="M141.8,163l5.9-11.5l8.3,4.2l-0.7,1.4l-6.8-3.5l-1.8,3.5l6.3,3.2l-0.7,1.3l-6.3-3.2l-2,3.9l7,3.6l-0.7,1.4L141.8,163z"/>
	
		<rect id="O-" x="149.5" y="117.4" transform="matrix(0.8905 0.455 -0.455 0.8905 77.6233 -59.9663)" class="st0" width="27.8" height="27.8"/>
	<path d="M157.8,128.6c1-1.9,2.2-3.1,3.8-3.7c1.6-0.6,3.2-0.4,4.8,0.4c1.1,0.5,1.9,1.3,2.5,2.2c0.6,0.9,0.9,2,0.9,3.1
		c0,1.1-0.3,2.3-0.9,3.4c-0.6,1.2-1.4,2.1-2.3,2.8c-0.9,0.7-2,1-3.1,1.1c-1.1,0-2.2-0.2-3.1-0.7c-1.1-0.6-1.9-1.3-2.5-2.3
		c-0.6-1-0.9-2-0.8-3.1C157,130.7,157.3,129.6,157.8,128.6z M159.4,129.4c-0.7,1.4-0.9,2.7-0.6,3.8c0.3,1.2,1.1,2.1,2.2,2.6
		c1.1,0.6,2.3,0.7,3.4,0.2c1.1-0.4,2.1-1.4,2.9-2.9c0.5-0.9,0.7-1.8,0.8-2.7c0-0.9-0.1-1.6-0.6-2.3c-0.4-0.7-1-1.2-1.8-1.6
		c-1.1-0.5-2.2-0.7-3.3-0.3C161.3,126.7,160.2,127.7,159.4,129.4z"/>
	
		<rect id="Y-" x="121.4" y="103" transform="matrix(0.8905 0.455 -0.455 0.8905 68.0117 -48.7529)" class="st0" width="27.8" height="27.8"/>
	<path d="M131.5,122.2l2.5-4.9l-1-8.9l1.8,0.9l0.5,4.6c0.1,0.9,0.1,1.7,0.2,2.5c0.7-0.4,1.4-0.9,2.3-1.4l3.9-2.2l1.8,0.9l-8,4.3
		L133,123L131.5,122.2z"/>
	
		<rect id="L-" x="135.6" y="75.2" transform="matrix(0.8905 0.455 -0.455 0.8905 56.9165 -58.2632)" class="st0" width="27.8" height="27.8"/>
	<path d="M143,93l5.9-11.5l1.5,0.8l-5.2,10.1l5.7,2.9l-0.7,1.4L143,93z"/>
	
		<rect id="N-" x="149.8" y="47.4" transform="matrix(0.8905 0.455 -0.455 0.8905 45.8212 -67.7735)" class="st0" width="27.8" height="27.8"/>
	<path d="M156.4,64.4l5.9-11.5l1.6,0.8l1.4,12.1l4.6-9l1.5,0.7l-5.9,11.5l-1.6-0.8l-1.4-12.1l-4.6,9L156.4,64.4z"/>
	
		<rect id="R-" x="99.6" y="76.3" transform="matrix(0.8905 0.455 -0.455 0.8905 53.4693 -41.7659)" class="st0" width="27.8" height="27.8"/>
	<path d="M106,93.6l5.9-11.5l5.1,2.6c1,0.5,1.7,1,2.2,1.5c0.4,0.5,0.7,1.1,0.7,1.7c0.1,0.7-0.1,1.3-0.4,2c-0.4,0.8-1,1.4-1.8,1.7
		c-0.8,0.3-1.8,0.2-3-0.2c0.3,0.4,0.5,0.7,0.6,1c0.2,0.6,0.4,1.4,0.5,2.2l0.4,4.1l-1.9-1l-0.3-3.2c-0.1-0.9-0.2-1.6-0.3-2.1
		c-0.1-0.5-0.2-0.9-0.4-1.2c-0.2-0.3-0.3-0.5-0.5-0.7c-0.2-0.1-0.4-0.3-0.8-0.5l-1.8-0.9l-2.6,5.1L106,93.6z M110.8,88l3.3,1.7
		c0.7,0.4,1.3,0.6,1.7,0.6c0.5,0.1,0.9,0,1.2-0.2c0.4-0.2,0.6-0.5,0.8-0.9c0.3-0.5,0.3-1.1,0.1-1.6c-0.2-0.6-0.7-1-1.6-1.5l-3.6-1.9
		L110.8,88z"/>
	
		<rect id="F-" x="113.8" y="48.5" transform="matrix(0.8905 0.455 -0.455 0.8905 42.3741 -51.2762)" class="st0" width="27.8" height="27.8"/>
	<path d="M121.2,66.3l5.9-11.5l7.7,4l-0.7,1.4l-6.2-3.2l-1.8,3.6l5.4,2.8l-0.7,1.4l-5.4-2.8l-2.7,5.2L121.2,66.3z"/>
	
		<rect id="M-" x="128" y="20.7" transform="matrix(0.8905 0.455 -0.455 0.8905 31.2788 -60.7865)" class="st0" width="27.8" height="27.8"/>
	<path d="M133.5,37.5l5.9-11.5l2.3,1.2l-1.4,9.5c-0.1,0.9-0.2,1.5-0.3,2c0.3-0.4,0.9-0.9,1.6-1.5l6.8-6.6l2,1l-5.9,11.5l-1.5-0.7
		l4.9-9.6l-8.2,7.9l-1.4-0.7l1.7-11.5l-5,9.8L133.5,37.5z"/>
	
		<rect id="_x2B__R" x="77.5" y="123.3" transform="matrix(0.8905 0.455 -0.455 0.8905 74.1741 -33.7448)" class="st0" width="59.3" height="27.8"/>
	<path d="M104.6,140.7l1.6-3.1l-3.1-1.6l0.7-1.3l3.1,1.6l1.6-3.1l1.3,0.7l-1.6,3.1l3.1,1.6l-0.7,1.3l-3.1-1.6l-1.6,3.1L104.6,140.7z
		"/>
	
		<rect id="_x2B__L" x="21.3" y="94.6" transform="matrix(0.8905 0.455 -0.455 0.8905 54.9509 -11.3179)" class="st0" width="59.3" height="27.8"/>
	<path d="M48.4,111.9l1.6-3.1l-3.1-1.6l0.7-1.3l3.1,1.6l1.6-3.1l1.3,0.7l-1.6,3.1l3.1,1.6l-0.7,1.3l-3.1-1.6l-1.6,3.1L48.4,111.9z"
		/>
	
		<rect id="H-" x="65.2" y="74.3" transform="matrix(0.8905 0.455 -0.455 0.8905 48.7886 -26.326)" class="st0" width="27.8" height="27.8"/>
	<path d="M71.6,91.6l5.9-11.5l1.5,0.8l-2.4,4.7l6,3L85,84l1.5,0.8l-5.9,11.5l-1.5-0.8l2.8-5.4l-6-3l-2.8,5.4L71.6,91.6z"/>
	
		<rect id="T-" x="79.4" y="46.5" transform="matrix(0.8905 0.455 -0.455 0.8905 37.6933 -35.8363)" class="st0" width="27.8" height="27.8"/>
	<path d="M89.6,65.7l5.2-10.1L91,53.7l0.7-1.4l9.1,4.6l-0.7,1.4l-3.8-1.9l-5.2,10.1L89.6,65.7z"/>
	
		<rect id="P-" x="93.6" y="18.7" transform="matrix(0.8905 0.455 -0.455 0.8905 26.5981 -45.3466)" class="st0" width="27.8" height="27.8"/>
	<path d="M100.2,36.1l5.9-11.5l4.3,2.2c0.8,0.4,1.3,0.7,1.7,1c0.5,0.4,0.9,0.8,1.1,1.3s0.4,1,0.4,1.6c0,0.6-0.2,1.2-0.5,1.7
		c-0.5,1-1.2,1.6-2.2,2c-1,0.4-2.3,0.1-3.9-0.7l-2.9-1.5l-2.4,4.7L100.2,36.1z M104.8,30.8l3,1.5c1,0.5,1.8,0.7,2.4,0.5
		c0.6-0.2,1.1-0.6,1.4-1.2c0.2-0.5,0.3-1,0.3-1.4s-0.3-0.9-0.6-1.2c-0.2-0.2-0.7-0.5-1.4-0.8l-2.9-1.5L104.8,30.8z"/>
	
		<rect id="C-" x="51.3" y="32.1" transform="matrix(0.8905 0.455 -0.455 0.8905 28.0817 -24.6229)" class="st0" width="27.8" height="27.8"/>
	<path d="M67.9,49.6l1.3,1.2c-1,1.1-2,1.7-3.2,2c-1.2,0.2-2.3,0-3.5-0.6c-1.2-0.6-2.1-1.4-2.6-2.3c-0.5-0.9-0.7-1.9-0.7-3.1
		c0.1-1.2,0.4-2.3,1-3.4c0.6-1.2,1.4-2.1,2.3-2.8c0.9-0.7,1.9-1,3-1s2.1,0.2,3.1,0.7c1.1,0.6,2,1.4,2.4,2.4c0.5,1,0.6,2.1,0.4,3.3
		l-1.7-0.4c0.2-1,0.1-1.8-0.2-2.4c-0.3-0.6-0.9-1.2-1.6-1.5c-0.9-0.5-1.7-0.6-2.5-0.5s-1.5,0.5-2.1,1.1s-1.1,1.3-1.5,2
		c-0.5,1-0.8,1.9-0.9,2.8s0.1,1.6,0.5,2.3c0.4,0.7,1,1.2,1.7,1.5c0.9,0.4,1.7,0.6,2.5,0.4C66.4,50.9,67.2,50.4,67.9,49.6z"/>
	
		<rect id="S-" x="37.1" y="59.9" transform="matrix(0.8905 0.455 -0.455 0.8905 39.177 -15.1126)" class="st0" width="27.8" height="27.8"/>
	<path d="M45.4,73.5l1.5,0.6c-0.2,0.6-0.3,1.2-0.2,1.7c0.1,0.5,0.3,1,0.7,1.5s0.9,0.9,1.6,1.2c0.6,0.3,1.1,0.5,1.7,0.5
		c0.5,0.1,1,0,1.4-0.2c0.4-0.2,0.6-0.5,0.8-0.8c0.2-0.4,0.2-0.7,0.2-1.1c-0.1-0.4-0.3-0.8-0.7-1.2c-0.2-0.3-0.8-0.8-1.8-1.6
		s-1.5-1.4-1.8-1.8c-0.4-0.6-0.6-1.1-0.7-1.7c-0.1-0.6,0.1-1.1,0.3-1.6c0.3-0.6,0.7-1,1.3-1.4c0.6-0.3,1.3-0.5,2-0.4
		c0.8,0.1,1.5,0.3,2.3,0.7c0.9,0.4,1.5,1,2,1.6c0.5,0.6,0.8,1.3,0.9,2c0.1,0.7,0,1.4-0.4,2.1L55,72.8c0.3-0.8,0.3-1.4,0-2
		s-0.8-1.1-1.7-1.6c-0.9-0.5-1.7-0.6-2.3-0.5c-0.6,0.1-1,0.4-1.3,0.9c-0.2,0.4-0.2,0.8-0.1,1.2c0.2,0.4,0.8,1.1,1.9,2s1.8,1.6,2.2,2
		c0.5,0.6,0.8,1.3,0.9,1.9s0,1.3-0.4,1.9c-0.3,0.6-0.8,1.1-1.4,1.5s-1.3,0.5-2.2,0.5c-0.8,0-1.6-0.3-2.4-0.7c-1-0.5-1.8-1.1-2.4-1.8
		s-0.9-1.4-1-2.2C44.9,75.1,45,74.3,45.4,73.5z"/>
</g>
<g id="Center">
	<polygon class="st0" points="184.2,126.1 209.1,179.7 183.4,191.8 157.8,179.1 	"/>
	<g>
		<path d="M187,176.1h-6.2v-1.9h2v-14.6h-2v-1.9h6.2v1.9h-2v14.6h2V176.1z"/>
	</g>
</g>
<g id="Base_Layout_Right">
	
		<rect id="_x2D_H_1_" x="293" y="36.9" transform="matrix(-0.9085 0.4179 -0.4179 -0.9085 606.8994 -31.3703)" class="st0" width="27.8" height="27.8"/>
	<path d="M305,58.7L299.6,47l1.5-0.7l2.2,4.8l6.1-2.8l-2.2-4.8l1.5-0.7l5.4,11.7l-1.5,0.7l-2.5-5.5l-6.1,2.8l2.5,5.5L305,58.7z"/>
	
		<rect id="_x2D_S_1_" x="306.1" y="65.3" transform="matrix(-0.9085 0.4179 -0.4179 -0.9085 643.6568 17.3107)" class="st0" width="27.8" height="27.8"/>
	<path d="M316.2,83.4l1.4-0.8c0.3,0.6,0.7,1,1.1,1.2c0.4,0.3,1,0.4,1.6,0.4s1.3-0.2,2-0.5c0.6-0.3,1.1-0.6,1.4-1
		c0.4-0.4,0.6-0.8,0.7-1.2s0-0.8-0.1-1.2c-0.2-0.4-0.4-0.6-0.8-0.8s-0.8-0.2-1.4-0.2c-0.4,0-1.2,0.2-2.3,0.4
		c-1.2,0.2-2.1,0.3-2.6,0.3c-0.7,0-1.3-0.2-1.8-0.5c-0.5-0.3-0.8-0.7-1.1-1.3c-0.3-0.6-0.4-1.2-0.3-1.9c0.1-0.7,0.4-1.3,0.9-1.8
		c0.5-0.6,1.2-1,2-1.4c0.9-0.4,1.7-0.6,2.5-0.6c0.8,0,1.5,0.2,2.1,0.5c0.6,0.4,1.1,0.9,1.4,1.6l-1.4,0.8c-0.4-0.7-0.9-1.1-1.6-1.3
		c-0.6-0.2-1.4,0-2.3,0.4c-0.9,0.4-1.5,0.9-1.8,1.5c-0.3,0.5-0.3,1.1-0.1,1.5c0.2,0.4,0.5,0.7,0.9,0.8c0.4,0.1,1.3,0.1,2.7-0.2
		c1.4-0.3,2.4-0.4,2.9-0.4c0.8,0,1.5,0.2,2.1,0.5c0.5,0.3,1,0.8,1.3,1.4c0.3,0.6,0.4,1.3,0.3,2c-0.1,0.7-0.4,1.4-0.9,2
		c-0.5,0.6-1.2,1.1-2,1.5c-1.1,0.5-2,0.7-2.9,0.8c-0.9,0-1.6-0.2-2.3-0.6C317.2,84.7,316.6,84.1,316.2,83.4z"/>
	
		<rect id="_x2D__x2B__1_" x="277.4" y="78.4" transform="matrix(-0.9085 0.4179 -0.4179 -0.9085 594.4573 54.4596)" class="st0" width="27.8" height="27.8"/>
	<path d="M292.4,96.5l-1.5-3.2l-3.2,1.5l-0.6-1.3l3.2-1.5l-1.5-3.2l1.4-0.6l1.5,3.2l3.2-1.5l0.6,1.3l-3.2,1.5l1.5,3.2L292.4,96.5z"
		/>
	
		<rect id="_x2D_T_1_" x="264.3" y="50.1" transform="matrix(-0.9085 0.4179 -0.4179 -0.9085 557.7 5.7786)" class="st0" width="27.8" height="27.8"/>
	<path d="M280.1,70.2l-4.7-10.3l-3.9,1.8l-0.6-1.4l9.3-4.3l0.6,1.4l-3.9,1.8l4.7,10.3L280.1,70.2z"/>
	
		<rect id="_x2D_P_1_" x="251.3" y="21.7" transform="matrix(-0.9085 0.4179 -0.4179 -0.9085 520.9425 -42.9024)" class="st0" width="27.8" height="27.8"/>
	<path d="M263.4,43.5L258,31.8l4.4-2c0.8-0.4,1.4-0.6,1.8-0.7c0.6-0.2,1.2-0.2,1.7-0.1c0.5,0.1,1,0.3,1.5,0.7
		c0.5,0.4,0.8,0.9,1.1,1.4c0.5,1,0.5,2,0.2,3c-0.3,1-1.3,1.9-3,2.6l-3,1.4l2.2,4.8L263.4,43.5z M262.1,36.6l3-1.4
		c1-0.5,1.6-1,1.9-1.5c0.2-0.6,0.2-1.2-0.1-1.9c-0.2-0.5-0.5-0.9-0.9-1.1c-0.4-0.2-0.8-0.3-1.3-0.2c-0.3,0.1-0.8,0.2-1.5,0.6l-3,1.4
		L262.1,36.6z"/>
	
		<rect id="_x2D_R_1_" x="242.9" y="79" transform="matrix(-0.9085 0.4179 -0.4179 -0.9085 528.9225 69.9742)" class="st0" width="27.8" height="27.8"/>
	<path d="M254.3,101.1l-5.4-11.7l5.2-2.4c1-0.5,1.9-0.7,2.5-0.8c0.6,0,1.2,0.1,1.8,0.5c0.6,0.4,1,0.9,1.3,1.5
		c0.4,0.8,0.4,1.7,0.2,2.5c-0.3,0.8-0.9,1.6-2,2.2c0.5,0,0.9,0.1,1.2,0.2c0.6,0.2,1.3,0.5,2,1l3.5,2.2l-1.9,0.9l-2.7-1.7
		c-0.8-0.5-1.4-0.9-1.9-1.1c-0.5-0.2-0.8-0.4-1.1-0.4c-0.3,0-0.6,0-0.8,0c-0.2,0-0.5,0.2-0.9,0.3l-1.8,0.8l2.4,5.2L254.3,101.1z
		 M252.9,93.9l3.3-1.5c0.7-0.3,1.2-0.7,1.6-1c0.3-0.3,0.5-0.7,0.6-1.1c0.1-0.4,0-0.8-0.2-1.2c-0.3-0.6-0.7-0.9-1.2-1.1
		c-0.6-0.2-1.3-0.1-2.2,0.3l-3.7,1.7L252.9,93.9z"/>
	
		<rect id="_x2D_F_1_" x="229.9" y="50.7" transform="matrix(-0.9085 0.4179 -0.4179 -0.9085 492.1651 21.2932)" class="st0" width="27.8" height="27.8"/>
	<path d="M242.5,72.2l-5.4-11.7l7.9-3.6l0.6,1.4l-6.3,2.9l1.7,3.6l5.5-2.5l0.6,1.4l-5.5,2.5l2.4,5.3L242.5,72.2z"/>
	
		<rect id="_x2D_M_1_" x="216.8" y="22.3" transform="matrix(-0.9085 0.4179 -0.4179 -0.9085 455.4077 -27.3878)" class="st0" width="27.8" height="27.8"/>
	<path d="M227.8,44.6l-5.4-11.7l2.3-1.1l6.6,7c0.6,0.7,1.1,1.1,1.4,1.5c-0.1-0.5-0.1-1.2-0.2-2.2l-0.9-9.4l2.1-1l5.4,11.7l-1.5,0.7
		l-4.5-9.8l1.1,11.4l-1.4,0.6l-8-8.4l4.6,10L227.8,44.6z"/>
	
		<rect id="_x2D_C_1_" x="220.1" y="104.8" transform="matrix(-0.9085 0.4179 -0.4179 -0.9085 496.0585 128.7574)" class="st0" width="27.8" height="27.8"/>
	<path d="M238.7,119.4l1.7-0.3c0.3,1.4,0.1,2.7-0.4,3.7c-0.5,1.1-1.4,1.9-2.6,2.4c-1.3,0.6-2.4,0.8-3.4,0.6c-1-0.2-2-0.6-2.8-1.4
		c-0.9-0.8-1.5-1.7-2.1-2.9c-0.6-1.2-0.8-2.4-0.8-3.5c0-1.1,0.4-2.1,1-3c0.6-0.9,1.5-1.5,2.5-2c1.2-0.5,2.3-0.7,3.4-0.5
		c1.1,0.2,2,0.8,2.8,1.7l-1.4,1.1c-0.7-0.7-1.3-1.2-2-1.3c-0.7-0.2-1.4,0-2.2,0.3c-0.9,0.4-1.6,1-2,1.7s-0.6,1.5-0.5,2.3
		c0.1,0.8,0.3,1.6,0.7,2.4c0.5,1,1,1.8,1.6,2.4c0.6,0.6,1.3,1,2.1,1c0.8,0.1,1.5,0,2.2-0.4c0.9-0.4,1.5-1,1.9-1.8
		C238.8,121.4,238.9,120.5,238.7,119.4z"/>
	
		<rect id="_x2D_L_1_" x="207" y="76.5" transform="matrix(-0.9085 0.4179 -0.4179 -0.9085 459.301 80.0764)" class="st0" width="27.8" height="27.8"/>
	<path d="M219.9,97.9l-5.4-11.7l1.5-0.7l4.7,10.3l5.8-2.7l0.6,1.4L219.9,97.9z"/>
	
		<rect id="_x2D_N_1_" x="194" y="48.1" transform="matrix(-0.9085 0.4179 -0.4179 -0.9085 422.5436 31.3955)" class="st0" width="27.8" height="27.8"/>
	<path d="M205.9,69.9l-5.4-11.7l1.6-0.7l10.4,6.4l-4.2-9.2l1.5-0.7l5.4,11.7l-1.6,0.7l-10.4-6.4l4.2,9.2L205.9,69.9z"/>
	
		<rect id="_x5E__R_1_" x="288.8" y="99.9" transform="matrix(-0.9085 0.4179 -0.4179 -0.9085 655.3935 84.0085)" class="st0" width="59.3" height="27.8"/>
	<path d="M318,117.8l-1.5,0.7l-0.1-7.7l1.2-0.5l5.8,5.1l-1.4,0.7l-4.2-3.9L318,117.8z"/>
	
		<rect id="_x5E__L_1_" x="231.5" y="126.3" transform="matrix(-0.9085 0.4179 -0.4179 -0.9085 556.9946 158.3063)" class="st0" width="59.3" height="27.8"/>
	<path d="M260.7,144.2l-1.5,0.7l-0.1-7.7l1.2-0.5l5.8,5.1l-1.4,0.7l-4.2-3.9L260.7,144.2z"/>
	
		<rect id="_x2D_A_1_" x="191.4" y="118" transform="matrix(-0.9085 0.4179 -0.4179 -0.9085 446.859 165.9063)" class="st0" width="27.8" height="27.8"/>
	<path d="M202.5,140.3l-0.9-13.8l1.7-0.8l10.2,9.5l-1.8,0.8l-3-2.9l-4.9,2.3l0.3,4.1L202.5,140.3z M203.6,133.9l4-1.8l-2.7-2.7
		c-0.8-0.8-1.5-1.5-1.9-2c0.2,0.8,0.3,1.7,0.4,2.5L203.6,133.9z"/>
	
		<rect id="_x2D_U_1_" x="204.4" y="146.4" transform="matrix(-0.9085 0.4179 -0.4179 -0.9085 483.6164 214.5873)" class="st0" width="27.8" height="27.8"/>
	<path d="M218.6,152.9l1.5-0.7l3.1,6.8c0.5,1.2,0.8,2.2,0.9,3c0.1,0.8-0.2,1.6-0.7,2.4c-0.5,0.8-1.3,1.4-2.4,1.9
		c-1.1,0.5-2.1,0.7-3,0.7c-0.9-0.1-1.6-0.4-2.2-1c-0.6-0.6-1.2-1.5-1.8-2.7l-3.1-6.8l1.5-0.7l3.1,6.8c0.5,1,0.9,1.7,1.3,2.1
		c0.4,0.4,0.9,0.6,1.5,0.7c0.6,0,1.2-0.1,1.9-0.4c1.1-0.5,1.8-1.2,2.1-1.9s0-1.8-0.6-3.3L218.6,152.9z"/>
</g>
</svg>
